# xmcd CD database file
#
# Track frame offsets:
#	150
#	13457
#	28422
#	38746
#	52533
#	66820
#	80102
#	93042
#	107849
#	121147
#	126556
#	140096
#	154215
#	164772
#	174972
#	186069
#	199668
#	217658
#	231215
#	242827
#	255290
#
# Disc length: 3569 seconds
#
# Revision: 0
# Processed by: cddbd v1.5.1PL0 Copyright (c) Steve Scherf et al.
# Submitted via: CDex 1.50
#
DISCID=220def15
DTITLE=Billie Holiday - Complete Columbia Golden Years Recordings Vol. 5a
DYEAR=1941
DGENRE=Jazz
TTITLE0=Let's Do It
TTITLE1=Georgia on My Mind
TTITLE2=Romance In the Dark
TTITLE3=All of Me
TTITLE4=I'm In A Low-Down Corner
TTITLE5=God Bless the Child
TTITLE6=Am I Blue?
TTITLE7=Solitude
TTITLE8=Let's Do It (alt)
TTITLE9=Let's Do It (alt)
TTITLE10=Georgia on My Mind (alt)
TTITLE11=Georgia on My Mind (alt)
TTITLE12=Romance In the Dark (alt)
TTITLE13=Romance In the Dark (alt)
TTITLE14=Romance In the Dark (alt)
TTITLE15=All of Me (alt)
TTITLE16=All of Me (alt)
TTITLE17=God Bless the Child (alt)
TTITLE18=God Bless the Child (alt)
TTITLE19=Am I Blue? (alt)
TTITLE20=Am I Blue? (alt)
EXTD=YEAR: 1941
EXTT0=
EXTT1=
EXTT2=
EXTT3=
EXTT4=
EXTT5=
EXTT6=
EXTT7=
EXTT8=
EXTT9=
EXTT10=
EXTT11=
EXTT12=
EXTT13=
EXTT14=
EXTT15=
EXTT16=
EXTT17=
EXTT18=
EXTT19=
EXTT20=
PLAYORDER=
